<svg version="1.1" id="Layer_1" xmlns="http://www.w3.org/2000/svg" xmlns:xlink="http://www.w3.org/1999/xlink" x="0px" y="0px"
	 width="100%" viewBox="0 0 900 900" enable-background="new 0 0 900 900" xml:space="preserve">
<path fill="#FFFFFF" opacity="1.000000" stroke="none" 
	d="
M901.000000,241.000000 
	C901.000000,461.333344 901.000000,681.166687 901.000000,901.000000 
	C601.000000,901.000000 301.000000,901.000000 1.000000,901.000000 
	C1.000000,601.000000 1.000000,301.000000 1.000000,1.000000 
	C301.000000,1.000000 601.000000,1.000000 901.000000,1.000000 
	C901.000000,80.833336 901.000000,160.666672 901.000000,241.000000 
M138.403366,51.031399 
	C138.192841,51.069893 137.982300,51.108391 137.191498,50.990795 
	C136.797089,51.047028 136.402679,51.103260 135.346512,51.019505 
	C134.900742,51.068146 134.454971,51.116783 133.503326,51.042267 
	C133.334534,51.082664 133.165741,51.123062 132.337494,51.023067 
	C131.892929,51.069958 131.448380,51.116848 130.499115,51.042049 
	C130.330826,51.082436 130.162552,51.122818 129.330826,51.022491 
	C128.882935,51.067337 128.435028,51.112186 127.505898,51.032623 
	C127.505898,51.032623 127.024048,51.154644 126.280083,51.015614 
	C125.529724,51.067101 124.779358,51.118587 123.519051,51.042244 
	C123.348289,51.081619 123.177528,51.120995 122.263458,51.015533 
	C121.511093,51.064999 120.758736,51.114468 119.516472,51.035881 
	C119.352440,51.075665 119.188408,51.115452 118.195534,51.013084 
	C116.802292,51.066414 115.409042,51.119743 113.506912,51.044693 
	C113.336708,51.084465 113.166496,51.124233 112.454254,51.028107 
	C112.272644,51.069489 112.091026,51.110870 111.002075,51.003223 
	C106.666878,51.057289 102.331680,51.111355 97.069511,51.021225 
	C81.470123,51.021225 65.870735,51.021225 50.166348,51.021225 
	C50.166348,71.731819 50.166348,91.868744 50.019253,112.869926 
	C50.068699,114.910934 50.118145,116.951935 50.021458,119.918922 
	C50.068073,125.279198 50.114689,130.639465 50.011417,136.738495 
	C50.061996,137.485916 50.112576,138.233337 50.021828,139.908966 
	C50.068569,145.274918 50.115311,150.640869 50.012222,156.657074 
	C50.062656,157.095581 50.113094,157.534103 50.021023,158.896591 
	C50.307404,163.607620 50.593784,168.318634 50.805176,173.654541 
	C50.588501,175.096054 50.371826,176.537552 50.016903,178.832077 
	C50.066547,180.551636 50.116188,182.271194 50.026363,184.719742 
	C50.322266,185.463333 50.888653,186.212387 50.873749,186.949707 
	C50.625076,199.252045 50.043045,211.552826 50.038074,223.854156 
	C49.976719,375.743225 49.997135,527.632324 49.996796,679.521423 
	C49.996788,684.029297 49.974525,688.537292 50.009586,693.044922 
	C50.044544,697.539124 50.168888,702.032654 50.197990,706.526855 
	C50.224926,710.686157 50.177692,714.845947 50.021851,719.853760 
	C50.307953,722.246216 50.594059,724.638733 50.858253,727.588928 
	C50.624252,728.051880 50.390255,728.514771 50.019482,729.891357 
	C50.069832,733.262390 50.120182,736.633423 50.014542,740.833313 
	C50.064381,742.235352 50.114220,743.637451 50.012249,745.683960 
	C50.061878,746.119934 50.111507,746.555847 50.014698,747.918030 
	C50.064171,753.287537 50.113644,758.657104 50.011475,764.756531 
	C50.062160,765.496887 50.112846,766.237244 50.022079,767.906250 
	C50.068985,773.279297 50.115891,778.652344 50.011406,784.885254 
	C50.061749,786.917969 50.112091,788.950623 50.018707,791.912964 
	C50.018707,811.901367 50.018707,831.889832 50.018707,851.832153 
	C66.490784,851.832153 82.242729,851.832153 98.913300,851.979675 
	C103.246948,851.936218 107.580605,851.892822 112.459297,851.972778 
	C112.639122,851.927124 112.818947,851.881470 113.512199,851.955261 
	C113.682518,851.911987 113.852829,851.868774 114.849075,851.967590 
	C116.246819,851.928101 117.644554,851.888611 119.520576,851.970032 
	C119.520576,851.970032 119.996452,851.840088 120.744148,851.976318 
	C121.499718,851.931580 122.255280,851.886780 123.511749,851.962219 
	C123.678177,851.919922 123.844604,851.877686 124.802254,851.980530 
	C125.869431,851.927429 126.936607,851.874329 128.662888,851.976196 
	C129.109802,851.930725 129.556702,851.885193 130.498978,851.962402 
	C130.664169,851.921692 130.829346,851.881042 131.660004,851.979187 
	C132.108490,851.932861 132.556976,851.886597 133.505157,851.962280 
	C133.671524,851.920898 133.837906,851.879456 134.669449,851.976501 
	C135.117966,851.931396 135.566498,851.886230 136.584808,851.989868 
	C136.970108,851.944641 137.355408,851.899414 138.350021,851.963135 
	C138.550476,851.920227 138.750946,851.877380 139.755478,851.974121 
	C140.840912,851.929688 141.926346,851.885254 143.499069,851.961914 
	C143.661514,851.921753 143.823975,851.881531 144.906921,851.984131 
	C148.929901,851.933289 152.952896,851.882446 157.719971,851.984558 
	C158.474838,851.936890 159.229691,851.889221 160.740738,851.975464 
	C161.505157,851.932922 162.269562,851.890320 163.682373,851.984070 
	C164.118851,851.935913 164.555344,851.887756 165.845673,851.973572 
	C167.572556,851.930969 169.299438,851.888428 171.950653,851.988098 
	C176.948486,852.000610 181.946335,852.013611 186.944168,852.025452 
	C191.464676,852.036255 195.984375,851.859802 200.505890,851.865295 
	C365.607635,852.065735 530.709595,852.045959 695.811584,851.979065 
	C699.533386,851.977539 703.260376,850.651184 706.975159,850.699219 
	C713.979370,850.789673 720.976440,851.432190 728.874756,851.974670 
	C731.587402,851.930420 734.299988,851.886169 737.518066,851.963135 
	C737.685608,851.918884 737.853088,851.874573 738.863037,851.975342 
	C740.570862,851.926086 742.278687,851.876831 744.504150,851.960999 
	C744.676941,851.917480 744.849670,851.874023 745.936218,851.973633 
	C749.960999,851.929199 753.985779,851.884766 758.500366,851.962952 
	C758.663696,851.922363 758.827026,851.881714 759.885559,851.975464 
	C762.597290,851.931580 765.309021,851.887695 768.505676,851.964600 
	C768.505676,851.964600 768.990051,851.841248 769.658630,851.979126 
	C770.109070,851.933167 770.559509,851.887207 771.499390,851.964111 
	C771.662598,851.923096 771.825745,851.882080 772.660156,851.979248 
	C773.112549,851.933289 773.564880,851.887390 774.494629,851.965088 
	C774.494629,851.965088 774.972412,851.843445 775.718872,851.985046 
	C776.472595,851.934631 777.226318,851.884216 778.481018,851.963562 
	C778.648743,851.923218 778.816467,851.882812 779.735229,851.983582 
	C780.494202,851.936279 781.253113,851.888916 782.477966,851.971985 
	C782.477966,851.971985 782.946350,851.851013 783.778625,851.991516 
	C785.180847,851.936768 786.583008,851.882019 788.488586,851.955994 
	C788.656860,851.915649 788.825073,851.875244 789.539551,851.973206 
	C789.722900,851.932617 789.906250,851.892090 790.997375,851.998657 
	C795.332642,851.943542 799.667969,851.888428 804.929932,851.979797 
	C820.478821,851.979797 836.027710,851.979797 851.837585,851.979797 
	C851.837585,831.367798 851.837585,811.175659 851.988647,790.121399 
	C851.938049,788.086914 851.887512,786.052490 851.979797,783.090149 
	C851.930542,777.727356 851.881287,772.364624 851.976868,766.074646 
	C851.931152,759.717529 851.885498,753.360352 851.987915,746.351807 
	C851.937256,745.913025 851.886597,745.474182 851.975037,744.203796 
	C851.925903,742.803894 851.876770,741.403992 851.972473,739.076172 
	C851.679077,731.400879 851.385620,723.725586 851.731323,715.738220 
	C851.724060,711.929810 851.907227,708.108337 851.648193,704.317139 
	C851.447571,701.380310 849.252441,697.439026 850.462524,695.765259 
	C853.787598,691.166077 851.665527,686.300781 851.676147,682.076599 
	C852.071411,524.880615 852.008850,367.683411 851.957947,210.486389 
	C851.957642,209.447281 851.220398,208.419250 850.893555,207.365479 
	C850.684326,206.691116 850.380188,205.940796 850.494202,205.290344 
	C850.914795,202.891144 852.329102,200.329193 851.839905,198.176010 
	C850.745117,193.357422 852.402588,188.702286 851.977844,183.144028 
	C851.934082,181.419891 851.890320,179.695740 851.991333,177.148224 
	C851.938354,175.759857 851.885376,174.371506 851.963867,172.084625 
	C851.918030,169.054779 851.872253,166.024933 851.980896,162.166946 
	C851.932373,160.766586 851.883911,159.366211 851.987732,157.323608 
	C851.937805,156.889175 851.887817,156.454727 851.980591,155.092026 
	C851.932922,149.718826 851.885254,144.345627 851.988647,138.240829 
	C851.938232,137.498779 851.887817,136.756729 851.981323,135.087357 
	C851.933533,129.720947 851.885742,124.354546 851.988647,118.125572 
	C851.938293,116.089020 851.887939,114.052460 851.980774,111.086342 
	C851.980774,91.098213 851.980774,71.110077 851.980774,51.168198 
	C835.173096,51.168198 819.089172,51.168198 802.089661,51.022099 
	C798.087830,51.065563 794.085999,51.109024 789.537354,51.026051 
	C789.356628,51.071808 789.175964,51.117569 788.492432,51.042843 
	C788.325500,51.085697 788.158508,51.128555 787.165039,51.029499 
	C785.768188,51.071018 784.371338,51.112541 782.485107,51.033192 
	C782.322693,51.076214 782.160217,51.119236 781.252747,51.023991 
	C780.499512,51.069057 779.746216,51.114124 778.478149,51.041145 
	C778.307495,51.084438 778.136841,51.127728 777.227051,51.027832 
	C776.477051,51.070663 775.727051,51.113491 774.495178,51.035107 
	C774.495178,51.035107 774.013611,51.157761 773.346558,51.020191 
	C772.897522,51.067200 772.448547,51.114212 771.496887,51.040642 
	C771.329468,51.081554 771.162109,51.122463 770.336182,51.023964 
	C769.892151,51.070316 769.448059,51.116669 768.496765,51.041161 
	C768.327820,51.082573 768.158936,51.123985 767.323608,51.024704 
	C766.873596,51.068298 766.423584,51.111889 765.497986,51.033478 
	C765.497986,51.033478 765.022583,51.155838 764.221252,51.016308 
	C763.140808,51.063004 762.060425,51.109695 760.244019,51.013084 
	C759.498840,51.061897 758.753723,51.110714 757.089417,51.015301 
	C753.069580,51.067585 749.049744,51.119865 744.512024,51.041122 
	C744.338928,51.082592 744.165771,51.124058 743.145996,51.034618 
	C741.437744,51.082016 739.729492,51.129414 737.517883,51.041897 
	C737.349121,51.083157 737.180420,51.124416 736.189209,51.031002 
	C734.806763,51.079563 733.424316,51.128128 731.111267,51.017731 
	C730.611633,51.008465 730.112000,50.991100 729.612366,50.991070 
	C557.546387,50.980133 385.480438,50.963680 213.414490,50.970161 
	C194.598206,50.970871 175.781937,51.103645 156.055832,51.026360 
	C152.036697,51.071625 148.017563,51.116894 143.260284,51.016876 
	C142.512909,51.063435 141.765549,51.109993 140.494934,51.038399 
	C140.320526,51.077797 140.146118,51.117195 139.501740,51.032040 
	C139.501740,51.032040 139.032257,51.160851 138.403366,51.031399 
z"/>
<path fill="#2540D9" opacity="1.000000" stroke="none" 
	d="
M777.966125,51.171021 
	C778.136841,51.127728 778.307495,51.084438 778.733582,51.558372 
	C778.988037,62.715492 778.936340,73.355873 779.040894,83.994720 
	C779.056519,85.584740 779.805786,87.167549 780.215637,88.753693 
	C780.809692,88.630241 781.403748,88.506798 781.997803,88.383347 
	C781.997803,75.976318 781.997803,63.569286 781.997803,51.162258 
	C782.160217,51.119236 782.322693,51.076214 782.729858,51.552147 
	C782.973938,63.372784 783.127563,74.677589 782.898560,85.974640 
	C782.803772,90.650398 784.648682,93.502762 788.999390,95.277969 
	C789.399048,95.690308 789.700867,95.854523 790.143555,96.319092 
	C794.520325,100.751198 798.756226,104.882965 803.146301,109.319672 
	C805.800476,112.102959 808.300476,114.581299 810.874512,117.362289 
	C811.283691,118.149139 811.618896,118.633347 812.021790,119.457062 
	C814.468933,123.111008 816.745605,126.506119 819.262939,129.712250 
	C821.015320,131.944168 823.098083,133.916687 825.003296,136.357727 
	C825.296936,137.532120 825.620544,138.353882 826.000610,139.521927 
	C829.064453,145.250290 832.071899,150.632355 835.055969,156.333511 
	C835.338196,157.168289 835.643738,157.683990 835.965576,158.554474 
	C836.339783,160.269180 836.697693,161.629105 837.188599,163.322113 
	C838.808716,171.975571 843.961548,174.593506 851.832458,172.983139 
	C851.885376,174.371506 851.938354,175.759857 851.479492,177.560394 
	C848.431885,177.972580 845.896179,177.972580 843.256592,177.972580 
	C844.152710,184.019821 844.152710,184.019821 851.835938,183.994186 
	C852.402588,188.702286 850.745117,193.357422 851.839905,198.176010 
	C852.329102,200.329193 850.914795,202.891144 850.494202,205.290344 
	C850.380188,205.940796 850.684326,206.691116 850.893555,207.365479 
	C851.220398,208.419250 851.957642,209.447281 851.957947,210.486389 
	C852.008850,367.683411 852.071411,524.880615 851.676147,682.076599 
	C851.665527,686.300781 853.787598,691.166077 850.462524,695.765259 
	C849.252441,697.439026 851.447571,701.380310 851.648193,704.317139 
	C851.907227,708.108337 851.724060,711.929810 851.014282,715.886475 
	C847.984924,718.144348 844.796936,719.833740 843.540771,722.450500 
	C840.853027,728.049500 839.164368,734.128235 837.005432,740.358276 
	C836.609314,742.065674 836.274231,743.425293 835.670776,744.964111 
	C835.272766,745.761597 835.143005,746.379822 834.720337,747.177734 
	C830.926514,753.893738 827.425598,760.430054 823.629822,767.129272 
	C819.538940,772.814758 815.742920,778.337463 811.679932,784.021851 
	C811.205750,784.765991 810.998535,785.348389 810.453003,785.991333 
	C808.073181,788.360901 806.031677,790.669922 803.692627,793.128235 
	C798.931641,797.838745 794.468079,802.399902 789.746948,807.030945 
	C789.297546,807.389954 789.105652,807.679077 788.577515,808.032410 
	C782.603149,811.944031 777.916382,815.800049 778.764526,824.096313 
	C779.700989,833.256775 778.982056,842.586487 778.984192,851.842468 
	C778.816467,851.882812 778.648743,851.923218 778.236206,851.440918 
	C777.991455,839.576477 777.991455,828.234619 777.991455,816.892822 
	C777.453552,816.792908 776.915649,816.692993 776.377747,816.593140 
	C775.908447,818.412170 775.057678,820.226074 775.033264,822.051086 
	C774.900513,831.980408 774.971558,841.912354 774.972412,851.843445 
	C774.972412,851.843445 774.494629,851.965088 774.256958,851.445068 
	C774.019348,840.592407 774.019348,830.259705 774.019348,819.927063 
	C773.342529,819.928162 772.665649,819.929199 771.988831,819.930298 
	C771.988831,830.567200 771.988831,841.204163 771.988831,851.841064 
	C771.825745,851.882080 771.662598,851.923096 771.256470,851.444458 
	C771.013611,841.262207 771.013611,831.599609 771.013611,821.937012 
	C770.339111,821.935303 769.664551,821.933594 768.990051,821.931885 
	C768.990051,831.901672 768.990051,841.871460 768.990051,851.841248 
	C768.990051,851.841248 768.505676,851.964600 768.263489,851.445801 
	C768.021301,841.909424 768.021301,832.891785 768.021301,823.617859 
	C758.984070,827.919312 758.983337,827.919312 758.984314,836.938354 
	C758.984924,841.905945 758.988220,846.873535 758.990295,851.841125 
	C758.827026,851.881714 758.663696,851.922363 758.256958,851.443481 
	C758.013550,843.886536 758.013550,836.848999 758.013550,828.149109 
	C752.885803,831.662109 748.952271,834.356995 744.605591,837.042053 
	C739.430359,836.895203 737.334778,839.014038 737.948608,843.915649 
	C738.274231,846.516052 738.015564,849.189697 738.020630,851.830261 
	C737.853088,851.874573 737.685608,851.918884 737.266357,851.451355 
	C737.014709,847.220764 737.014709,843.501892 737.014709,839.681152 
	C727.993408,841.495117 727.974487,841.516663 727.975708,849.365479 
	C727.975830,850.192078 727.976196,851.018616 727.976440,851.845215 
	C720.976440,851.432190 713.979370,850.789673 706.975159,850.699219 
	C703.260376,850.651184 699.533386,851.977539 695.811584,851.979065 
	C530.709595,852.045959 365.607635,852.065735 200.505890,851.865295 
	C195.984375,851.859802 191.464676,852.036255 186.944168,852.025452 
	C181.946335,852.013611 176.948486,852.000610 171.487885,851.480957 
	C171.025101,847.860779 171.025101,844.747803 171.025101,841.217712 
	C169.461044,840.733521 167.468719,840.116760 165.481308,839.501526 
	C165.237839,840.222107 165.044266,840.531921 165.041443,840.843506 
	C165.008362,844.508728 165.003860,848.174194 164.991821,851.839600 
	C164.555344,851.887756 164.118851,851.935913 163.357086,851.461548 
	C162.223328,846.601379 164.715134,841.584167 161.530716,837.735901 
	C161.015335,837.813110 160.499939,837.890381 159.984558,837.967590 
	C159.984558,842.592285 159.984558,847.216919 159.984558,851.841553 
	C159.229691,851.889221 158.474838,851.936890 157.353668,851.451294 
	C156.988693,846.784729 157.078766,842.648438 156.935562,838.520142 
	C156.894333,837.331726 156.530533,835.575012 155.715088,835.092896 
	C152.122177,832.968567 148.310104,831.215027 143.986450,829.028198 
	C143.986450,837.316772 143.986450,844.578979 143.986450,851.841248 
	C143.823975,851.881531 143.661514,851.921753 143.256348,851.443176 
	C143.014053,844.381165 142.952515,837.837097 143.044174,831.295105 
	C143.083115,828.514893 142.183090,826.859253 138.886841,826.684326 
	C138.315491,827.753479 137.775391,829.094604 137.760406,830.441528 
	C137.681091,837.578308 137.733765,844.716492 137.740692,851.854187 
	C137.355408,851.899414 136.970108,851.944641 136.301208,851.457275 
	C136.017624,842.155579 136.017624,833.386475 136.017624,824.617310 
	C135.346512,824.640015 134.675385,824.662720 134.004272,824.685425 
	C134.004272,833.736267 134.004272,842.787109 134.004272,851.837952 
	C133.837906,851.879456 133.671524,851.920898 133.257431,851.443115 
	C133.009705,841.494568 133.009705,832.065247 133.009705,822.635864 
	C132.337967,822.656433 131.666245,822.677063 130.994507,822.697693 
	C130.994507,832.411926 130.994507,842.126099 130.994507,851.840332 
	C130.829346,851.881042 130.664169,851.921692 130.253845,851.442871 
	C130.010040,842.491028 130.069916,834.057922 129.967560,825.626892 
	C129.944672,823.742859 129.352570,821.865662 128.865158,819.687805 
	C127.311874,818.426941 125.915977,817.463684 124.011032,816.149109 
	C124.011032,828.660889 124.011032,840.248169 124.011032,851.835449 
	C123.844604,851.877686 123.678177,851.919922 123.263130,851.443848 
	C123.015526,840.283142 123.067551,829.640320 122.962410,818.999023 
	C122.946701,817.408813 122.193336,815.825867 121.781219,814.239563 
	C121.186302,814.363342 120.591377,814.487122 119.996452,814.610901 
	C119.996452,827.020630 119.996452,839.430359 119.996452,851.840088 
	C119.996452,851.840088 119.520576,851.970032 119.280197,851.450928 
	C119.040321,839.624634 118.883301,828.314209 119.116798,817.011902 
	C119.213806,812.315979 117.321838,809.497925 112.989258,807.720825 
	C112.596542,807.306274 112.296593,807.140686 111.855103,806.675476 
	C107.145897,801.910889 102.578232,797.445923 97.852684,792.678711 
	C95.529449,790.228516 93.364098,788.080627 91.126945,785.630005 
	C90.719841,784.842285 90.384529,784.357361 89.985580,783.535278 
	C86.787292,778.774963 83.721016,774.300659 80.473442,769.962097 
	C79.577003,768.764465 78.140381,767.971191 76.989326,766.640259 
	C76.704842,765.464966 76.382607,764.641846 76.003021,763.471252 
	C72.948586,757.746765 69.951485,752.369690 66.966064,746.672119 
	C66.670273,745.834045 66.362801,745.316589 66.038986,744.456177 
	C65.372375,742.731506 64.722092,741.349670 64.045578,739.578979 
	C61.327652,728.970947 61.327652,728.970947 51.148415,728.977173 
	C50.817692,728.977356 50.486969,728.977539 50.156250,728.977722 
	C50.390255,728.514771 50.624252,728.051880 51.322701,727.297974 
	C54.347744,727.007019 56.908344,727.007019 59.604233,727.007019 
	C57.980270,718.977417 57.980270,718.977417 50.163124,719.005493 
	C50.177692,714.845947 50.224926,710.686157 50.197990,706.526855 
	C50.168888,702.032654 50.044544,697.539124 50.009586,693.044922 
	C49.974525,688.537292 49.996788,684.029297 49.996796,679.521423 
	C49.997135,527.632324 49.976719,375.743225 50.038074,223.854156 
	C50.043045,211.552826 50.625076,199.252045 50.873749,186.949707 
	C50.888653,186.212387 50.322266,185.463333 50.526932,184.358551 
	C54.800385,183.965485 59.336800,184.966812 58.526047,177.979065 
	C55.653175,177.979065 52.904163,177.979065 50.155151,177.979065 
	C50.371826,176.537552 50.588501,175.096054 51.288879,173.330322 
	C55.749519,173.153519 60.048504,173.417343 62.167477,169.291428 
	C63.939690,165.840698 64.786194,161.914536 66.311432,158.025024 
	C66.695885,157.238785 66.811531,156.626419 67.223480,155.834198 
	C70.363541,150.161743 73.207291,144.669128 76.337990,138.970047 
	C76.742058,137.843765 76.859169,136.923981 77.329529,135.985229 
	C81.482033,130.329376 85.281296,124.692444 89.371063,119.027992 
	C90.113243,118.677383 90.564919,118.354294 91.315552,117.870941 
	C94.078575,114.809738 96.542625,111.908791 99.305649,108.862549 
	C103.735497,104.483818 107.866379,100.250374 112.256409,95.953690 
	C112.710243,95.602768 112.904938,95.315094 113.444702,94.966690 
	C117.833931,92.978645 119.231667,89.875076 119.118813,85.344330 
	C118.835098,73.954247 119.024605,62.552380 119.024376,51.155239 
	C119.188408,51.115452 119.352440,51.075665 119.758163,51.557831 
	C119.999855,64.219521 119.999855,76.359268 119.999855,88.499016 
	C120.996246,88.523895 121.992638,88.548775 122.989021,88.573662 
	C123.036934,76.104767 123.005585,63.631714 123.006775,51.160366 
	C123.177528,51.120995 123.348289,51.081619 123.767883,51.563690 
	C124.016708,63.221626 124.016708,74.358116 124.016708,85.494606 
	C125.012291,85.524170 126.007866,85.553734 127.003448,85.583290 
	C127.050529,74.109375 127.016380,62.630814 127.024048,51.154644 
	C127.024048,51.154644 127.505898,51.032623 127.745071,51.553185 
	C127.984245,62.168056 127.984245,72.262375 127.984245,82.356689 
	C128.654251,82.337379 129.324265,82.318069 129.994278,82.298759 
	C129.994278,71.920242 129.994278,61.541721 129.994278,51.163200 
	C130.162552,51.122818 130.330826,51.082436 130.748718,51.560822 
	C130.998322,61.503635 130.998322,70.927681 130.998322,80.351723 
	C131.664536,80.353157 132.330734,80.354591 132.996948,80.356033 
	C132.996948,70.625175 132.996948,60.894318 132.996948,51.163460 
	C133.165741,51.123062 133.334534,51.082664 133.752777,51.561668 
	C134.002228,60.841644 134.002228,69.602211 134.002228,78.362778 
	C134.670914,78.363922 135.339584,78.365067 136.008270,78.366203 
	C136.008270,69.297302 136.008270,60.228394 136.008270,51.159492 
	C136.402679,51.103260 136.797089,51.047028 137.473969,51.526531 
	C137.753983,59.309704 137.711487,66.557678 137.809097,73.803764 
	C137.819199,74.553497 138.663406,75.292007 139.507477,75.920685 
	C140.270233,74.314636 140.944733,72.828812 140.970688,71.331749 
	C141.087234,64.608429 141.019470,57.881916 141.018173,51.156555 
	C141.765549,51.109993 142.512909,51.063435 143.627274,51.547485 
	C143.994263,58.937836 143.994263,65.797577 143.994263,72.857376 
	C155.536987,69.773102 156.985687,67.981026 156.983627,57.635345 
	C156.983200,55.481953 156.971939,53.328556 156.965652,51.175163 
	C175.781937,51.103645 194.598206,50.970871 213.414490,50.970161 
	C385.480438,50.963680 557.546387,50.980133 729.612366,50.991070 
	C730.112000,50.991100 730.611633,51.008465 731.568909,51.543037 
	C732.004150,62.064224 732.004150,62.064224 743.992554,66.184906 
	C743.992554,61.106453 743.992554,56.135990 743.992554,51.165527 
	C744.165771,51.124058 744.338928,51.082592 744.764832,51.563194 
	C745.016479,56.221806 744.925415,60.361519 745.070984,64.492889 
	C745.112793,65.680893 745.495056,67.464371 746.307739,67.913330 
	C749.959595,69.930786 753.822632,71.565979 758.008545,73.525925 
	C758.008545,65.696419 758.008545,58.427975 758.008545,51.159531 
	C758.753723,51.110714 759.498840,51.061897 760.611633,51.543121 
	C760.978943,58.896988 760.813965,65.727547 761.092224,72.539963 
	C761.163330,74.280571 762.637756,75.963852 763.467468,77.673470 
	C763.985840,77.468208 764.504211,77.262947 765.022583,77.057686 
	C765.022583,68.423737 765.022583,59.789787 765.022583,51.155838 
	C765.022583,51.155838 765.497986,51.033478 765.735962,51.552910 
	C765.973877,60.841438 765.973877,69.610535 765.973877,78.379631 
	C766.645935,78.356903 767.318054,78.334167 767.990112,78.311432 
	C767.990112,69.262756 767.990112,60.214077 767.990112,51.165398 
	C768.158936,51.123985 768.327820,51.082573 768.747314,51.560066 
	C768.997925,61.504086 768.997925,70.929199 768.997925,80.354309 
	C769.663513,80.355690 770.329163,80.357079 770.994751,80.358459 
	C770.994751,70.626762 770.994751,60.895069 770.994751,51.163372 
	C771.162109,51.122463 771.329468,51.081554 771.745605,51.559017 
	C771.994263,62.171646 771.994263,72.265900 771.994263,82.360153 
	C772.667358,82.361603 773.340515,82.363052 774.013611,82.364510 
	C774.013611,71.962257 774.013611,61.560009 774.013611,51.157761 
	C774.013611,51.157761 774.495178,51.035107 774.735901,51.554085 
	C774.975830,61.737774 774.899170,71.403610 775.042175,81.066193 
	C775.068787,82.863190 775.978699,84.647118 776.480957,86.437073 
	C776.976013,86.320396 777.471069,86.203720 777.966125,86.087036 
	C777.966125,74.448364 777.966125,62.809692 777.966125,51.171021 
M215.867096,573.821106 
	C215.249374,576.233704 214.089600,578.659058 214.146194,581.055725 
	C214.223190,584.315796 215.207428,587.558167 215.840927,590.800720 
	C218.838272,606.142517 226.977280,617.831360 241.922394,622.961487 
	C268.763031,632.174988 296.810028,635.883057 325.477448,639.882996 
	C341.222382,641.251831 356.948608,642.918030 372.717346,643.907654 
	C389.228790,644.943848 405.778351,645.790588 422.316101,645.886597 
	C444.235352,646.013794 466.160370,645.387695 488.080719,644.970215 
	C496.351135,644.812744 504.627167,644.511902 512.880127,643.965820 
	C531.295044,642.747192 549.712646,641.514038 568.098755,639.933228 
	C579.860291,638.922058 591.679688,637.893311 603.272644,635.775024 
	C620.114807,632.697693 636.777954,628.638611 653.513855,624.982056 
	C663.386658,622.825012 671.018188,617.238220 677.237549,609.467590 
	C682.981995,602.290161 685.224792,593.590820 686.697144,584.937073 
	C687.418457,580.697876 685.268066,575.940796 684.286133,571.446777 
	C681.880371,560.435730 673.910767,552.776245 667.783264,543.969788 
	C658.463135,530.574768 649.141052,517.156189 640.497559,503.324066 
	C634.819702,494.237915 630.335510,484.405823 625.226685,474.140045 
	C622.573303,467.480927 619.842590,460.851440 617.280945,454.157227 
	C609.499695,433.823120 605.212463,412.785858 604.148071,391.015594 
	C603.651550,380.859161 602.833496,370.652588 601.179077,360.630859 
	C595.992920,329.214691 580.994263,302.661224 558.868652,280.220825 
	C544.350403,265.495972 527.273987,254.139313 507.792297,246.793472 
	C503.220306,245.069534 500.690765,242.496872 501.353485,237.430206 
	C501.417267,236.942688 501.404602,236.409821 501.278473,235.937836 
	C493.706177,207.606628 472.024628,191.326431 442.182404,195.298737 
	C419.966034,198.255951 401.961273,216.027145 399.495667,240.630096 
	C399.332977,242.253540 397.627686,244.467651 396.100372,245.096420 
	C375.674652,253.505463 357.154968,264.912476 341.648621,280.662262 
	C328.101135,294.422485 317.314484,310.166870 309.620209,328.063812 
	C301.687469,346.515503 297.477051,365.639374 296.710297,385.656525 
	C296.338196,395.370667 296.166870,405.193848 294.551636,414.738739 
	C290.717712,437.394379 282.992310,458.876007 272.886658,479.496155 
	C269.868286,485.655090 266.764160,491.772003 263.155914,498.162598 
	C263.017120,498.733948 262.878357,499.305267 262.116669,500.179932 
	C260.315582,503.420715 258.514496,506.661499 256.090485,510.193817 
	C247.983215,522.195374 239.880890,534.200317 231.766602,546.197083 
	C227.766357,552.111328 223.744080,558.010681 219.117111,564.277710 
	C218.382248,566.764221 217.647369,569.250793 216.381989,571.973145 
	C216.268402,572.312927 216.154831,572.652771 215.867096,573.821106 
M409.606445,665.000183 
	C401.769257,664.572021 393.932068,664.143921 385.727478,663.695679 
	C394.614197,687.959717 421.581238,710.816772 459.637787,706.905579 
	C484.244995,704.376587 508.630005,685.099854 514.619812,665.000000 
	C480.069122,665.000000 445.326172,665.000000 409.606445,665.000183 
z"/>
<path fill="#1C30A1" opacity="1.000000" stroke="none" 
	d="
M810.800476,117.059631 
	C808.300476,114.581299 805.800476,112.102959 803.149353,108.849442 
	C803.000549,89.105568 803.002869,70.136887 803.005249,51.168198 
	C819.089172,51.168198 835.173096,51.168198 851.980774,51.168198 
	C851.980774,71.110077 851.980774,91.098213 851.451294,111.545410 
	C837.741760,112.004478 824.561646,112.004478 811.379700,112.004478 
	C811.136658,114.125610 810.968567,115.592621 810.800476,117.059631 
z"/>
<path fill="#1C30A3" opacity="1.000000" stroke="none" 
	d="
M99.006676,109.007843 
	C96.542625,111.908791 94.078575,114.809738 91.308006,117.429649 
	C90.888977,115.571175 90.776459,113.993736 90.634644,112.005669 
	C76.831726,112.005669 63.499039,112.005669 50.166348,112.005669 
	C50.166348,91.868744 50.166348,71.731819 50.166348,51.021225 
	C65.870735,51.021225 81.470123,51.021225 97.534241,51.551216 
	C97.999428,68.967178 97.965057,85.853317 98.044769,102.738914 
	C98.054642,104.830025 98.671227,106.918266 99.006676,109.007843 
z"/>
<path fill="#1A2E9B" opacity="1.000000" stroke="none" 
	d="
M91.198730,785.932800 
	C93.364098,788.080627 95.529449,790.228516 97.848740,793.149414 
	C98.000000,813.225647 97.997337,832.528870 97.994675,851.832153 
	C82.242729,851.832153 66.490784,851.832153 50.018707,851.832153 
	C50.018707,831.889832 50.018707,811.901367 50.548454,791.454102 
	C64.255394,790.995300 77.432587,790.995300 90.608490,790.995300 
	C90.856773,788.865784 91.027748,787.399292 91.198730,785.932800 
z"/>
<path fill="#1A2E9B" opacity="1.000000" stroke="none" 
	d="
M803.990112,792.978882 
	C806.031677,790.669922 808.073181,788.360901 810.558044,786.420654 
	C810.516968,790.377930 812.254822,791.129272 815.579895,791.075806 
	C827.663147,790.881226 839.751282,790.989441 851.837585,790.983459 
	C851.837585,811.175659 851.837585,831.367798 851.837585,851.979797 
	C836.027710,851.979797 820.478821,851.979797 804.465454,851.448730 
	C803.997375,831.604675 803.993774,812.291809 803.990112,792.978882 
z"/>
<path fill="#1C30A1" opacity="1.000000" stroke="none" 
	d="
M803.692627,793.128174 
	C803.993774,812.291809 803.997375,831.604675 804.002075,851.375488 
	C799.667969,851.888428 795.332642,851.943542 790.554199,851.466797 
	C790.075500,836.276917 790.040039,821.619019 790.004517,806.961060 
	C794.468079,802.399902 798.931641,797.838745 803.692627,793.128174 
z"/>
<path fill="#1C31A6" opacity="1.000000" stroke="none" 
	d="
M98.453987,851.905884 
	C97.997337,832.528870 98.000000,813.225647 98.006607,793.451660 
	C102.578232,797.445923 107.145897,801.910889 111.812042,807.144409 
	C111.911766,822.558472 111.913010,837.203918 111.914253,851.849365 
	C107.580605,851.892822 103.246948,851.936218 98.453987,851.905884 
z"/>
<path fill="#1E33AD" opacity="1.000000" stroke="none" 
	d="
M99.305649,108.862549 
	C98.671227,106.918266 98.054642,104.830025 98.044769,102.738914 
	C97.965057,85.853317 97.999428,68.967178 97.997726,51.623314 
	C102.331680,51.111355 106.666878,51.057289 111.447571,51.535736 
	C111.927795,66.717804 111.962524,81.367363 111.997253,96.016922 
	C107.866379,100.250374 103.735497,104.483818 99.305649,108.862549 
z"/>
<path fill="#1D32AA" opacity="1.000000" stroke="none" 
	d="
M802.547485,51.095146 
	C803.002869,70.136887 803.000549,89.105568 802.995178,108.544495 
	C798.756226,104.882965 794.520325,100.751198 790.184937,95.850479 
	C790.085022,80.438507 790.084595,65.795502 790.084167,51.152489 
	C794.085999,51.109024 798.087830,51.065563 802.547485,51.095146 
z"/>
<path fill="#1A2E9B" opacity="1.000000" stroke="none" 
	d="
M76.951584,766.992432 
	C78.140381,767.971191 79.577003,768.764465 80.473442,769.962097 
	C83.721016,774.300659 86.787292,778.774963 89.516861,783.597046 
	C76.128784,784.005798 63.145790,784.015564 50.162796,784.025391 
	C50.115891,778.652344 50.068985,773.279297 50.550659,767.447205 
	C59.703350,766.989624 68.327461,766.991028 76.951584,766.992432 
z"/>
<path fill="#1A2E9B" opacity="1.000000" stroke="none" 
	d="
M811.946899,783.860107 
	C815.742920,778.337463 819.538940,772.814758 824.106567,767.141602 
	C833.862732,766.994690 842.847412,766.998230 851.832031,767.001831 
	C851.881287,772.364624 851.930542,777.727356 851.450500,783.548584 
	C837.929749,783.958008 824.938354,783.909058 811.946899,783.860107 
z"/>
<path fill="#1A2E9B" opacity="1.000000" stroke="none" 
	d="
M825.033325,136.005096 
	C823.098083,133.916687 821.015320,131.944168 819.262939,129.712250 
	C816.745605,126.506119 814.468933,123.111008 812.490112,119.393440 
	C825.873047,118.989586 838.855530,118.988861 851.838013,118.988136 
	C851.885742,124.354546 851.933533,129.720947 851.451538,135.545227 
	C842.292236,136.003769 833.662781,136.004425 825.033325,136.005096 
z"/>
<path fill="#1C30A3" opacity="1.000000" stroke="none" 
	d="
M89.080566,119.055511 
	C85.281296,124.692444 81.482033,130.329376 76.862701,135.984589 
	C67.415520,136.001831 58.788414,136.000793 50.161308,135.999741 
	C50.114689,130.639465 50.068073,125.279198 50.552303,119.457901 
	C63.748951,119.016418 76.414757,119.035965 89.080566,119.055511 
z"/>
<path fill="#1B2F9F" opacity="1.000000" stroke="none" 
	d="
M851.904419,766.538208 
	C842.847412,766.998230 833.862732,766.994690 824.401367,766.978760 
	C827.425598,760.430054 830.926514,753.893738 835.186646,747.179565 
	C841.243774,747.002197 846.541809,747.002747 851.839783,747.003235 
	C851.885498,753.360352 851.931152,759.717529 851.904419,766.538208 
z"/>
<path fill="#1B2F9F" opacity="1.000000" stroke="none" 
	d="
M66.954376,746.992615 
	C69.951485,752.369690 72.948586,757.746765 75.534836,763.544067 
	C66.803703,763.985107 58.483410,764.005859 50.163113,764.026611 
	C50.113644,758.657104 50.064171,753.287537 50.544720,747.461487 
	C56.367950,747.000854 61.661160,746.996704 66.954376,746.992615 
z"/>
<path fill="#1C30A1" opacity="1.000000" stroke="none" 
	d="
M835.079285,156.014435 
	C832.071899,150.632355 829.064453,145.250290 826.468750,139.451050 
	C835.199463,139.013397 843.518494,138.992905 851.837646,138.972427 
	C851.885254,144.345627 851.932922,149.718826 851.452393,155.550140 
	C845.642578,156.010330 840.360962,156.012375 835.079285,156.014435 
z"/>
<path fill="#1C31A6" opacity="1.000000" stroke="none" 
	d="
M76.051033,139.176529 
	C73.207291,144.669128 70.363541,150.161743 66.761703,155.832764 
	C60.723083,156.009735 55.442566,156.008270 50.162048,156.006805 
	C50.115311,150.640869 50.068569,145.274918 50.550308,139.449890 
	C59.402866,139.052734 67.726952,139.114624 76.051033,139.176529 
z"/>
<path fill="#1C31A6" opacity="1.000000" stroke="none" 
	d="
M779.359741,851.913025 
	C778.982056,842.586487 779.700989,833.256775 778.764526,824.096313 
	C777.916382,815.800049 782.603149,811.944031 788.649170,808.498901 
	C789.006165,822.949707 788.955322,836.998413 788.704163,851.111816 
	C788.261780,851.338318 788.088867,851.555237 787.985229,851.827332 
	C786.583008,851.882019 785.180847,851.936768 783.364990,851.462463 
	C782.951416,839.642395 782.951416,828.351379 782.951416,817.060364 
	C782.638306,817.059937 782.325195,817.059509 782.012085,817.059082 
	C782.012085,828.653259 782.012085,840.247437 782.012085,851.841614 
	C781.253113,851.888916 780.494202,851.936279 779.359741,851.913025 
z"/>
<path fill="#000000" opacity="1.000000" stroke="none" 
	d="
M811.679932,784.021851 
	C824.938354,783.909058 837.929749,783.958008 851.379028,784.012451 
	C851.887512,786.052490 851.938049,788.086914 851.913086,790.552429 
	C839.751282,790.989441 827.663147,790.881226 815.579895,791.075806 
	C812.254822,791.129272 810.516968,790.377930 810.896362,786.360107 
	C810.998535,785.348389 811.205750,784.765991 811.679932,784.021851 
z"/>
<path fill="#000000" opacity="1.000000" stroke="none" 
	d="
M50.087101,784.455322 
	C63.145790,784.015564 76.128784,784.005798 89.580498,783.934204 
	C90.384529,784.357361 90.719841,784.842285 91.126938,785.630005 
	C91.027748,787.399292 90.856773,788.865784 90.608490,790.995300 
	C77.432587,790.995300 64.255394,790.995300 50.620316,790.989319 
	C50.112091,788.950623 50.061749,786.917969 50.087101,784.455322 
z"/>
<path fill="#000000" opacity="1.000000" stroke="none" 
	d="
M851.913330,118.556854 
	C838.855530,118.988861 825.873047,118.989586 812.422363,119.053932 
	C811.618896,118.633347 811.283691,118.149139 810.874512,117.362282 
	C810.968567,115.592621 811.136658,114.125610 811.379700,112.004478 
	C824.561646,112.004478 837.741760,112.004478 851.379761,112.010193 
	C851.887939,114.052460 851.938293,116.089020 851.913330,118.556854 
z"/>
<path fill="#192B91" opacity="1.000000" stroke="none" 
	d="
M89.371063,119.027992 
	C76.414757,119.035965 63.748951,119.016418 50.625366,118.994904 
	C50.118145,116.951935 50.068699,114.910934 50.092800,112.437798 
	C63.499039,112.005669 76.831726,112.005669 90.634644,112.005669 
	C90.776459,113.993736 90.888977,115.571175 91.009048,117.589912 
	C90.564919,118.354294 90.113243,118.677383 89.371063,119.027992 
z"/>
<path fill="#1D32AA" opacity="1.000000" stroke="none" 
	d="
M745.018738,837.051880 
	C748.952271,834.356995 752.885803,831.662109 758.013550,828.149109 
	C758.013550,836.848999 758.013550,843.886536 758.012085,851.382202 
	C753.985779,851.884766 749.960999,851.929199 745.475586,851.680054 
	C745.015015,851.386475 745.017212,850.942383 745.015015,850.481445 
	C745.014771,845.697632 745.016785,841.374756 745.018738,837.051880 
z"/>
<path fill="#1E33AD" opacity="1.000000" stroke="none" 
	d="
M144.446686,851.912720 
	C143.986450,844.578979 143.986450,837.316772 143.986450,829.028198 
	C148.310104,831.215027 152.122177,832.968567 155.715088,835.092896 
	C156.530533,835.575012 156.894333,837.331726 156.935562,838.520142 
	C157.078766,842.648438 156.988693,846.784729 156.981613,851.374817 
	C152.952896,851.882446 148.929901,851.933289 144.446686,851.912720 
z"/>
<path fill="#1E34B1" opacity="1.000000" stroke="none" 
	d="
M757.548950,51.087418 
	C758.008545,58.427975 758.008545,65.696419 758.008545,73.525925 
	C753.822632,71.565979 749.959595,69.930786 746.307739,67.913330 
	C745.495056,67.464371 745.112793,65.680893 745.070984,64.492889 
	C744.925415,60.361519 745.016479,56.221806 745.023804,51.628708 
	C749.049744,51.119865 753.069580,51.067585 757.548950,51.087418 
z"/>
<path fill="#1E33AD" opacity="1.000000" stroke="none" 
	d="
M788.901550,95.029839 
	C784.648682,93.502762 782.803772,90.650398 782.898560,85.974640 
	C783.127563,74.677589 782.973938,63.372784 782.974548,51.612583 
	C784.371338,51.112541 785.768188,51.071018 787.680298,51.281422 
	C788.370972,51.767101 788.602966,51.907097 788.965088,52.419968 
	C788.992981,66.934349 788.947266,80.982094 788.901550,95.029839 
z"/>
<path fill="#1E34B1" opacity="1.000000" stroke="none" 
	d="
M118.609955,51.084160 
	C119.024605,62.552380 118.835098,73.954247 119.118813,85.344330 
	C119.231667,89.875076 117.833931,92.978645 113.373215,94.500603 
	C113.005608,80.049606 113.054550,66.003967 113.300064,51.887348 
	C113.736847,51.656147 113.909904,51.441715 114.015800,51.173073 
	C115.409042,51.119743 116.802292,51.066414 118.609955,51.084160 
z"/>
<path fill="#1C31A6" opacity="1.000000" stroke="none" 
	d="
M113.082024,807.969788 
	C117.321838,809.497925 119.213806,812.315979 119.116798,817.011902 
	C118.883301,828.314209 119.040321,839.624634 119.041054,851.390442 
	C117.644554,851.888611 116.246819,851.928101 114.330063,851.711060 
	C113.630150,851.211365 113.388954,851.074219 113.014343,850.576538 
	C112.988159,836.063232 113.035095,822.016541 113.082024,807.969788 
z"/>
<path fill="#1E34B1" opacity="1.000000" stroke="none" 
	d="
M156.510742,51.100761 
	C156.971939,53.328556 156.983200,55.481953 156.983627,57.635345 
	C156.985687,67.981026 155.536987,69.773102 143.994263,72.857376 
	C143.994263,65.797577 143.994263,58.937836 143.996338,51.620129 
	C148.017563,51.116894 152.036697,51.071625 156.510742,51.100761 
z"/>
<path fill="#1D32AA" opacity="1.000000" stroke="none" 
	d="
M837.066528,740.010437 
	C839.164368,734.128235 840.853027,728.049500 843.540771,722.450500 
	C844.796936,719.833740 847.984924,718.144348 850.694763,716.042480 
	C851.385620,723.725586 851.679077,731.400879 851.445190,739.539307 
	C846.300842,740.005066 841.683655,740.007751 837.066528,740.010437 
z"/>
<path fill="#1E33AD" opacity="1.000000" stroke="none" 
	d="
M759.437927,851.908325 
	C758.988220,846.873535 758.984924,841.905945 758.984314,836.938354 
	C758.983337,827.919312 758.984070,827.919312 768.021301,823.617859 
	C768.021301,832.891785 768.021301,841.909424 768.020996,851.385437 
	C765.309021,851.887695 762.597290,851.931580 759.437927,851.908325 
z"/>
<path fill="#1E34B1" opacity="1.000000" stroke="none" 
	d="
M66.042625,158.198898 
	C64.786194,161.914536 63.939690,165.840698 62.167477,169.291428 
	C60.048504,173.417343 55.749519,173.153519 51.326378,173.017883 
	C50.593784,168.318634 50.307404,163.607620 50.548424,158.438995 
	C56.064754,158.053894 61.053692,158.126404 66.042625,158.198898 
z"/>
<path fill="#1E34B1" opacity="1.000000" stroke="none" 
	d="
M743.569275,51.100075 
	C743.992554,56.135990 743.992554,61.106453 743.992554,66.184906 
	C732.004150,62.064224 732.004150,62.064224 732.034180,51.622520 
	C733.424316,51.128128 734.806763,51.079563 736.693970,51.247890 
	C737.472839,51.368793 737.747070,51.272808 738.021240,51.176819 
	C739.729492,51.129414 741.437744,51.082016 743.569275,51.100075 
z"/>
<path fill="#1E33AD" opacity="1.000000" stroke="none" 
	d="
M124.406647,851.907959 
	C124.011032,840.248169 124.011032,828.660889 124.011032,816.149109 
	C125.915977,817.463684 127.311874,818.426941 128.563858,819.981262 
	C128.281219,830.988586 128.142502,841.404907 128.003784,851.821228 
	C126.936607,851.874329 125.869431,851.927429 124.406647,851.907959 
z"/>
<path fill="#1E33AD" opacity="1.000000" stroke="none" 
	d="
M50.087864,729.434570 
	C50.486969,728.977539 50.817692,728.977356 51.148415,728.977173 
	C61.327652,728.970947 61.327652,728.970947 63.574280,739.591125 
	C58.809654,739.996277 54.490093,740.000366 50.170532,740.004456 
	C50.120182,736.633423 50.069832,733.262390 50.087864,729.434570 
z"/>
<path fill="#1E34B1" opacity="1.000000" stroke="none" 
	d="
M851.898193,172.533875 
	C843.961548,174.593506 838.808716,171.975571 837.647705,163.325302 
	C842.591431,162.995300 847.208923,162.995193 851.826416,162.995087 
	C851.872253,166.024933 851.918030,169.054779 851.898193,172.533875 
z"/>
<path fill="#1E34B1" opacity="1.000000" stroke="none" 
	d="
M122.635117,51.087952 
	C123.005585,63.631714 123.036934,76.104767 122.989021,88.573662 
	C121.992638,88.548775 120.996246,88.523895 119.999855,88.499016 
	C119.999855,76.359268 119.999855,64.219521 120.003113,51.621857 
	C120.758736,51.114468 121.511093,51.064999 122.635117,51.087952 
z"/>
<path fill="#1D32AA" opacity="1.000000" stroke="none" 
	d="
M120.370300,851.908203 
	C119.996452,839.430359 119.996452,827.020630 119.996452,814.610901 
	C120.591377,814.487122 121.186302,814.363342 121.781219,814.239563 
	C122.193336,815.825867 122.946701,817.408813 122.962410,818.999023 
	C123.067551,829.640320 123.015526,840.283142 123.012680,851.383728 
	C122.255280,851.886780 121.499718,851.931580 120.370300,851.908203 
z"/>
<path fill="#1E33AD" opacity="1.000000" stroke="none" 
	d="
M781.625244,51.093124 
	C781.997803,63.569286 781.997803,75.976318 781.997803,88.383347 
	C781.403748,88.506798 780.809692,88.630241 780.215637,88.753693 
	C779.805786,87.167549 779.056519,85.584740 779.040894,83.994720 
	C778.936340,73.355873 778.988037,62.715492 778.990967,51.617401 
	C779.746216,51.114124 780.499512,51.069057 781.625244,51.093124 
z"/>
<path fill="#1D32AA" opacity="1.000000" stroke="none" 
	d="
M777.596558,51.099426 
	C777.966125,62.809692 777.966125,74.448364 777.966125,86.087036 
	C777.471069,86.203720 776.976013,86.320396 776.480957,86.437073 
	C775.978699,84.647118 775.068787,82.863190 775.042175,81.066193 
	C774.899170,71.403610 774.975830,61.737774 774.976807,51.614693 
	C775.727051,51.113491 776.477051,51.070663 777.596558,51.099426 
z"/>
<path fill="#1C30A3" opacity="1.000000" stroke="none" 
	d="
M775.345642,851.914246 
	C774.971558,841.912354 774.900513,831.980408 775.033264,822.051086 
	C775.057678,820.226074 775.908447,818.412170 776.377747,816.593140 
	C776.915649,816.692993 777.453552,816.792908 777.991455,816.892822 
	C777.991455,828.234619 777.991455,839.576477 777.985718,851.376099 
	C777.226318,851.884216 776.472595,851.934631 775.345642,851.914246 
z"/>
<path fill="#1E33AD" opacity="1.000000" stroke="none" 
	d="
M126.652069,51.085129 
	C127.016380,62.630814 127.050529,74.109375 127.003448,85.583290 
	C126.007866,85.553734 125.012291,85.524170 124.016708,85.494606 
	C124.016708,74.358116 124.016708,63.221626 124.022858,51.627602 
	C124.779358,51.118587 125.529724,51.067101 126.652069,51.085129 
z"/>
<path fill="#1E33AD" opacity="1.000000" stroke="none" 
	d="
M764.621948,51.086075 
	C765.022583,59.789787 765.022583,68.423737 765.022583,77.057686 
	C764.504211,77.262947 763.985840,77.468208 763.467468,77.673470 
	C762.637756,75.963852 761.163330,74.280571 761.092224,72.539963 
	C760.813965,65.727547 760.978943,58.896988 760.979614,51.614777 
	C762.060425,51.109695 763.140808,51.063004 764.621948,51.086075 
z"/>
<path fill="#1E34B1" opacity="1.000000" stroke="none" 
	d="
M744.605591,837.042053 
	C745.016785,841.374756 745.014771,845.697632 744.804321,850.580688 
	C744.323730,851.308533 744.120667,851.537415 743.986511,851.827515 
	C742.278687,851.876831 740.570862,851.926086 738.441833,851.902832 
	C738.015564,849.189697 738.274231,846.516052 737.948608,843.915649 
	C737.334778,839.014038 739.430359,836.895203 744.605591,837.042053 
z"/>
<path fill="#1E34B1" opacity="1.000000" stroke="none" 
	d="
M728.425659,851.909912 
	C727.976196,851.018616 727.975830,850.192078 727.975708,849.365479 
	C727.974487,841.516663 727.993408,841.495117 737.014709,839.681152 
	C737.014709,843.501892 737.014709,847.220764 737.013672,851.390747 
	C734.299988,851.886169 731.587402,851.930420 728.425659,851.909912 
z"/>
<path fill="#1E34B1" opacity="1.000000" stroke="none" 
	d="
M139.160416,826.958984 
	C142.183090,826.859253 143.083115,828.514893 143.044174,831.295105 
	C142.952515,837.837097 143.014053,844.381165 143.012695,851.382629 
	C141.926346,851.885254 140.840912,851.929688 139.357758,851.446411 
	C139.026840,842.932129 139.093628,834.945557 139.160416,826.958984 
z"/>
<path fill="#000000" opacity="1.000000" stroke="none" 
	d="
M76.337990,138.970047 
	C67.726952,139.114624 59.402866,139.052734 50.620972,138.985794 
	C50.112576,138.233337 50.061996,137.485916 50.086365,136.369110 
	C58.788414,136.000793 67.415520,136.001831 76.509453,136.003525 
	C76.859169,136.923981 76.742058,137.843765 76.337990,138.970047 
z"/>
<path fill="#000000" opacity="1.000000" stroke="none" 
	d="
M851.913086,138.606628 
	C843.518494,138.992905 835.199463,139.013397 826.412231,139.104767 
	C825.620544,138.353882 825.296936,137.532120 825.003296,136.357727 
	C833.662781,136.004425 842.292236,136.003769 851.379517,136.008896 
	C851.887817,136.756729 851.938232,137.498779 851.913086,138.606628 
z"/>
<path fill="#000000" opacity="1.000000" stroke="none" 
	d="
M50.087296,764.391602 
	C58.483410,764.005859 66.803703,763.985107 75.592186,763.891479 
	C76.382607,764.641846 76.704842,765.464966 76.989319,766.640259 
	C68.327461,766.991028 59.703350,766.989624 50.621384,766.982910 
	C50.112846,766.237244 50.062160,765.496887 50.087296,764.391602 
z"/>
<path fill="#1C31A6" opacity="1.000000" stroke="none" 
	d="
M50.092537,740.418884 
	C54.490093,740.000366 58.809654,739.996277 63.600517,739.979980 
	C64.722092,741.349670 65.372375,742.731506 65.575516,744.543091 
	C60.140266,744.994995 55.152164,745.017212 50.164059,745.039490 
	C50.114220,743.637451 50.064381,742.235352 50.092537,740.418884 
z"/>
<path fill="#1C30A3" opacity="1.000000" stroke="none" 
	d="
M837.005432,740.358276 
	C841.683655,740.007751 846.300842,740.005066 851.372803,740.003235 
	C851.876770,741.403992 851.925903,742.803894 851.449219,744.614868 
	C845.928711,744.945557 840.933960,744.865234 835.939209,744.784912 
	C836.274231,743.425293 836.609314,742.065674 837.005432,740.358276 
z"/>
<path fill="#1D32AA" opacity="1.000000" stroke="none" 
	d="
M851.903687,162.581024 
	C847.208923,162.995193 842.591431,162.995300 837.514771,162.992218 
	C836.697693,161.629105 836.339783,160.269180 836.428955,158.469254 
	C841.862488,158.008118 846.848938,157.986984 851.835449,157.965851 
	C851.883911,159.366211 851.932373,160.766586 851.903687,162.581024 
z"/>
<path fill="#1E34B1" opacity="1.000000" stroke="none" 
	d="
M165.418747,851.906616 
	C165.003860,848.174194 165.008362,844.508728 165.041443,840.843506 
	C165.044266,840.531921 165.237839,840.222107 165.481308,839.501526 
	C167.468719,840.116760 169.461044,840.733521 171.025101,841.217712 
	C171.025101,844.747803 171.025101,847.860779 171.025711,851.409790 
	C169.299438,851.888428 167.572556,851.930969 165.418747,851.906616 
z"/>
<path fill="#1D32AA" opacity="1.000000" stroke="none" 
	d="
M50.092487,719.429626 
	C57.980270,718.977417 57.980270,718.977417 59.604233,727.007019 
	C56.908344,727.007019 54.347744,727.007019 51.333656,727.019104 
	C50.594059,724.638733 50.307953,722.246216 50.092487,719.429626 
z"/>
<path fill="#1C31A6" opacity="1.000000" stroke="none" 
	d="
M772.324463,851.910156 
	C771.988831,841.204163 771.988831,830.567200 771.988831,819.930298 
	C772.665649,819.929199 773.342529,819.928162 774.019348,819.927063 
	C774.019348,830.259705 774.019348,840.592407 774.018311,851.383301 
	C773.564880,851.887390 773.112549,851.933289 772.324463,851.910156 
z"/>
<path fill="#1D32AA" opacity="1.000000" stroke="none" 
	d="
M128.333344,851.898682 
	C128.142502,841.404907 128.281219,830.988586 128.721237,820.278809 
	C129.352570,821.865662 129.944672,823.742859 129.967560,825.626892 
	C130.069916,834.057922 130.010040,842.491028 130.006165,851.381470 
	C129.556702,851.885193 129.109802,851.930725 128.333344,851.898682 
z"/>
<path fill="#1E33AD" opacity="1.000000" stroke="none" 
	d="
M773.680054,51.088974 
	C774.013611,61.560009 774.013611,71.962257 774.013611,82.364510 
	C773.340515,82.363052 772.667358,82.361603 771.994263,82.360153 
	C771.994263,72.265900 771.994263,62.171646 771.996887,51.619308 
	C772.448547,51.114212 772.897522,51.067200 773.680054,51.088974 
z"/>
<path fill="#1E33AD" opacity="1.000000" stroke="none" 
	d="
M129.662552,51.092846 
	C129.994278,61.541721 129.994278,71.920242 129.994278,82.298759 
	C129.324265,82.318069 128.654251,82.337379 127.984245,82.356689 
	C127.984245,72.262375 127.984245,62.168056 127.985687,51.615387 
	C128.435028,51.112186 128.882935,51.067337 129.662552,51.092846 
z"/>
<path fill="#1D32AA" opacity="1.000000" stroke="none" 
	d="
M769.324341,851.910156 
	C768.990051,841.871460 768.990051,831.901672 768.990051,821.931885 
	C769.664551,821.933594 770.339111,821.935303 771.013611,821.937012 
	C771.013611,831.599609 771.013611,841.262207 771.011780,851.383057 
	C770.559509,851.887207 770.109070,851.933167 769.324341,851.910156 
z"/>
<path fill="#1E34B1" opacity="1.000000" stroke="none" 
	d="
M132.667221,51.093262 
	C132.996948,60.894318 132.996948,70.625175 132.996948,80.356033 
	C132.330734,80.354591 131.664536,80.353157 130.998322,80.351723 
	C130.998322,70.927681 130.998322,61.503635 131.001068,51.621666 
	C131.448380,51.116848 131.892929,51.069958 132.667221,51.093262 
z"/>
<path fill="#1E33AD" opacity="1.000000" stroke="none" 
	d="
M770.665466,51.093666 
	C770.994751,60.895069 770.994751,70.626762 770.994751,80.358459 
	C770.329163,80.357079 769.663513,80.355690 768.997925,80.354309 
	C768.997925,70.929199 768.997925,61.504086 769.000977,51.620995 
	C769.448059,51.116669 769.892151,51.070316 770.665466,51.093666 
z"/>
<path fill="#1E33AD" opacity="1.000000" stroke="none" 
	d="
M131.327255,851.909790 
	C130.994507,842.126099 130.994507,832.411926 130.994507,822.697693 
	C131.666245,822.677063 132.337967,822.656433 133.009705,822.635864 
	C133.009705,832.065247 133.009705,841.494568 133.007584,851.382141 
	C132.556976,851.886597 132.108490,851.932861 131.327255,851.909790 
z"/>
<path fill="#1E33AD" opacity="1.000000" stroke="none" 
	d="
M135.677399,51.089497 
	C136.008270,60.228394 136.008270,69.297302 136.008270,78.366203 
	C135.339584,78.365067 134.670914,78.363922 134.002228,78.362778 
	C134.002228,69.602211 134.002228,60.841644 134.005707,51.623245 
	C134.454971,51.116783 134.900742,51.068146 135.677399,51.089497 
z"/>
<path fill="#1C31A6" opacity="1.000000" stroke="none" 
	d="
M134.336853,851.907227 
	C134.004272,842.787109 134.004272,833.736267 134.004272,824.685425 
	C134.675385,824.662720 135.346512,824.640015 136.017624,824.617310 
	C136.017624,833.386475 136.017624,842.155579 136.016327,851.382935 
	C135.566498,851.886230 135.117966,851.931396 134.336853,851.907227 
z"/>
<path fill="#1D32AA" opacity="1.000000" stroke="none" 
	d="
M767.656860,51.095051 
	C767.990112,60.214077 767.990112,69.262756 767.990112,78.311432 
	C767.318054,78.334167 766.645935,78.356903 765.973877,78.379631 
	C765.973877,69.610535 765.973877,60.841438 765.973755,51.613911 
	C766.423584,51.111889 766.873596,51.068298 767.656860,51.095051 
z"/>
<path fill="#1E34B1" opacity="1.000000" stroke="none" 
	d="
M50.086029,178.405579 
	C52.904163,177.979065 55.653175,177.979065 58.526047,177.979065 
	C59.336800,184.966812 54.800385,183.965485 50.596664,183.994064 
	C50.116188,182.271194 50.066547,180.551636 50.086029,178.405579 
z"/>
<path fill="#1E33AD" opacity="1.000000" stroke="none" 
	d="
M851.906860,183.569107 
	C844.152710,184.019821 844.152710,184.019821 843.256592,177.972580 
	C845.896179,177.972580 848.431885,177.972580 851.407104,177.972092 
	C851.890320,179.695740 851.934082,181.419891 851.906860,183.569107 
z"/>
<path fill="#1E33AD" opacity="1.000000" stroke="none" 
	d="
M140.756561,51.097477 
	C141.019470,57.881916 141.087234,64.608429 140.970688,71.331749 
	C140.944733,72.828812 140.270233,74.314636 139.439117,75.453629 
	C139.039017,67.379814 139.094162,59.658012 139.329834,51.858551 
	C139.729584,51.621166 139.883362,51.413067 139.971710,51.156593 
	C140.146118,51.117195 140.320526,51.077797 140.756561,51.097477 
z"/>
<path fill="#040615" opacity="1.000000" stroke="none" 
	d="
M788.904419,851.047058 
	C788.955322,836.998413 789.006165,822.949707 788.985352,808.434570 
	C789.105652,807.679077 789.297546,807.389954 789.746948,807.030945 
	C790.040039,821.619019 790.075500,836.276917 790.100342,851.393188 
	C789.906250,851.892090 789.722900,851.932617 789.256104,851.705811 
	C788.972595,851.438354 788.904419,851.047058 788.904419,851.047058 
z"/>
<path fill="#040615" opacity="1.000000" stroke="none" 
	d="
M113.103493,51.958328 
	C113.054550,66.003967 113.005608,80.049606 113.028145,94.561325 
	C112.904938,95.315094 112.710243,95.602768 112.256401,95.953690 
	C111.962524,81.367363 111.927795,66.717804 111.901237,51.610252 
	C112.091026,51.110870 112.272644,51.069489 112.738068,51.296482 
	C113.021889,51.564857 113.103493,51.958328 113.103493,51.958328 
z"/>
<path fill="#040615" opacity="1.000000" stroke="none" 
	d="
M788.999390,95.277969 
	C788.947266,80.982094 788.992981,66.934349 789.004272,52.224220 
	C788.969910,51.561832 788.995300,51.163326 788.995300,51.163326 
	C789.175964,51.117569 789.356628,51.071808 789.810791,51.089272 
	C790.084595,65.795502 790.085022,80.438507 790.044067,95.550133 
	C789.700867,95.854523 789.399048,95.690308 788.999390,95.277969 
z"/>
<path fill="#040615" opacity="1.000000" stroke="none" 
	d="
M112.989258,807.720825 
	C113.035095,822.016541 112.988159,836.063232 112.980713,850.773438 
	C113.020210,851.436890 112.998779,851.835754 112.998779,851.835754 
	C112.818947,851.881470 112.639122,851.927124 112.186775,851.911072 
	C111.913010,837.203918 111.911766,822.558472 111.953583,807.444092 
	C112.296593,807.140686 112.596542,807.306274 112.989258,807.720825 
z"/>
<path fill="#1E33AD" opacity="1.000000" stroke="none" 
	d="
M160.362640,851.908508 
	C159.984558,847.216919 159.984558,842.592285 159.984558,837.967590 
	C160.499939,837.890381 161.015335,837.813110 161.530716,837.735901 
	C164.715134,841.584167 162.223328,846.601379 163.032883,851.393311 
	C162.269562,851.890320 161.505157,851.932922 160.362640,851.908508 
z"/>
<path fill="#2540D9" opacity="1.000000" stroke="none" 
	d="
M782.244995,851.906799 
	C782.012085,840.247437 782.012085,828.653259 782.012085,817.059082 
	C782.325195,817.059509 782.638306,817.059937 782.951416,817.060364 
	C782.951416,828.351379 782.951416,839.642395 782.948853,851.392212 
	C782.946350,851.851013 782.477966,851.971985 782.244995,851.906799 
z"/>
<path fill="#000000" opacity="1.000000" stroke="none" 
	d="
M835.670837,744.964111 
	C840.933960,744.865234 845.928711,744.945557 851.379700,745.030640 
	C851.886597,745.474182 851.937256,745.913025 851.913818,746.677490 
	C846.541809,747.002747 841.243774,747.002197 835.479492,746.999878 
	C835.143005,746.379822 835.272766,745.761597 835.670837,744.964111 
z"/>
<path fill="#000000" opacity="1.000000" stroke="none" 
	d="
M50.088154,745.361694 
	C55.152164,745.017212 60.140266,744.994995 65.591850,744.885925 
	C66.362801,745.316589 66.670273,745.834045 66.966057,746.672119 
	C61.661160,746.996704 56.367950,747.000854 50.617939,746.998413 
	C50.111507,746.555847 50.061878,746.119934 50.088154,745.361694 
z"/>
<path fill="#000000" opacity="1.000000" stroke="none" 
	d="
M851.911621,157.644745 
	C846.848938,157.986984 841.862488,158.008118 836.412598,158.114471 
	C835.643738,157.683990 835.338196,157.168289 835.055969,156.333496 
	C840.360962,156.012375 845.642578,156.010330 851.381042,156.014282 
	C851.887817,156.454727 851.937805,156.889175 851.911621,157.644745 
z"/>
<path fill="#000000" opacity="1.000000" stroke="none" 
	d="
M66.311432,158.025024 
	C61.053692,158.126404 56.064754,158.053894 50.619675,157.976990 
	C50.113094,157.534103 50.062656,157.095581 50.087135,156.331940 
	C55.442566,156.008270 60.723083,156.009735 66.465385,156.012604 
	C66.811531,156.626419 66.695885,157.238785 66.311432,158.025024 
z"/>
<path fill="#040615" opacity="1.000000" stroke="none" 
	d="
M139.149323,51.936207 
	C139.094162,59.658012 139.039017,67.379814 139.052231,75.568680 
	C138.663406,75.292007 137.819199,74.553497 137.809097,73.803764 
	C137.711487,66.557678 137.753983,59.309704 137.764099,51.604576 
	C137.982300,51.108391 138.192841,51.069893 138.733307,51.291977 
	C139.063248,51.552555 139.149323,51.936207 139.149323,51.936207 
z"/>
<path fill="#040615" opacity="1.000000" stroke="none" 
	d="
M138.886841,826.684326 
	C139.093628,834.945557 139.026840,842.932129 138.955734,851.376587 
	C138.750946,851.877380 138.550476,851.920227 138.045349,851.908691 
	C137.733765,844.716492 137.681091,837.578308 137.760406,830.441528 
	C137.775391,829.094604 138.315491,827.753479 138.886841,826.684326 
z"/>
<path fill="#2540D9" opacity="1.000000" stroke="none" 
	d="
M788.743896,51.103085 
	C788.995300,51.163326 788.969910,51.561832 788.930725,51.757584 
	C788.602966,51.907097 788.370972,51.767101 788.093506,51.352379 
	C788.158508,51.128555 788.325500,51.085697 788.743896,51.103085 
z"/>
<path fill="#2540D9" opacity="1.000000" stroke="none" 
	d="
M737.769531,51.109360 
	C737.747070,51.272808 737.472839,51.368793 737.105164,51.315224 
	C737.180420,51.124416 737.349121,51.083157 737.769531,51.109360 
z"/>
<path fill="#2540D9" opacity="1.000000" stroke="none" 
	d="
M139.329834,51.858551 
	C139.149323,51.936207 139.063248,51.552555 139.047760,51.356705 
	C139.032257,51.160851 139.501740,51.032040 139.736725,51.094315 
	C139.883362,51.413067 139.729584,51.621166 139.329834,51.858551 
z"/>
<path fill="#2540D9" opacity="1.000000" stroke="none" 
	d="
M113.300064,51.887348 
	C113.103493,51.958328 113.021889,51.564857 113.009094,51.364426 
	C113.166496,51.124233 113.336708,51.084465 113.761353,51.108879 
	C113.909904,51.441715 113.736847,51.656147 113.300064,51.887348 
z"/>
<path fill="#2540D9" opacity="1.000000" stroke="none" 
	d="
M113.255493,851.895508 
	C112.998779,851.835754 113.020210,851.436890 113.053833,851.239990 
	C113.388954,851.074219 113.630150,851.211365 113.917084,851.640015 
	C113.852829,851.868774 113.682518,851.911987 113.255493,851.895508 
z"/>
<path fill="#2540D9" opacity="1.000000" stroke="none" 
	d="
M744.245361,851.894287 
	C744.120667,851.537415 744.323730,851.308533 744.806519,851.041626 
	C745.017212,850.942383 745.015015,851.386475 745.018738,851.608521 
	C744.849670,851.874023 744.676941,851.917480 744.245361,851.894287 
z"/>
<path fill="#2540D9" opacity="1.000000" stroke="none" 
	d="
M788.704163,851.111816 
	C788.904419,851.047058 788.972595,851.438354 788.982971,851.636597 
	C788.825073,851.875244 788.656860,851.915649 788.236938,851.891663 
	C788.088867,851.555237 788.261780,851.338318 788.704163,851.111816 
z"/>
<path fill="#FDFDFD" opacity="1.000000" stroke="none" 
	d="
M263.699280,497.908142 
	C266.764160,491.772003 269.868286,485.655090 272.886658,479.496155 
	C282.992310,458.876007 290.717712,437.394379 294.551636,414.738739 
	C296.166870,405.193848 296.338196,395.370667 296.710297,385.656525 
	C297.477051,365.639374 301.687469,346.515503 309.620209,328.063812 
	C317.314484,310.166870 328.101135,294.422485 341.648621,280.662262 
	C357.154968,264.912476 375.674652,253.505463 396.100372,245.096420 
	C397.627686,244.467651 399.332977,242.253540 399.495667,240.630096 
	C401.961273,216.027145 419.966034,198.255951 442.182404,195.298737 
	C472.024628,191.326431 493.706177,207.606628 501.278473,235.937836 
	C501.404602,236.409821 501.417267,236.942688 501.353485,237.430206 
	C500.690765,242.496872 503.220306,245.069534 507.792297,246.793472 
	C527.273987,254.139313 544.350403,265.495972 558.868652,280.220825 
	C580.994263,302.661224 595.992920,329.214691 601.179077,360.630859 
	C602.833496,370.652588 603.651550,380.859161 604.148071,391.015594 
	C605.212463,412.785858 609.499695,433.823120 617.280945,454.157227 
	C619.842590,460.851440 622.573303,467.480927 624.896118,474.521851 
	C623.130005,473.955536 621.694458,473.007416 620.247070,472.051514 
	C617.807983,474.854645 612.449463,476.333618 617.283142,481.717590 
	C613.602234,482.888367 610.425171,483.898895 606.492065,485.149872 
	C608.250977,487.844940 609.587402,489.892639 611.350098,492.593567 
	C607.630371,492.873260 604.596863,493.101318 601.446655,493.338196 
	C600.450806,497.487183 599.521179,501.360107 598.789490,504.408661 
	C594.220032,507.092346 589.677551,509.760223 585.116211,512.439148 
	C585.438904,514.582825 585.701599,516.327942 585.945557,517.948730 
	C583.628967,519.098083 581.638794,520.221375 579.541870,521.085510 
	C577.649658,521.865356 575.640564,522.361877 573.146484,523.153687 
	C570.461060,528.995728 567.430359,535.484070 558.426086,534.525696 
	C558.027344,534.483276 557.561096,535.438110 557.067444,535.859497 
	C555.394775,537.286926 553.695557,538.683289 551.542664,540.478210 
	C551.566650,540.890625 551.639282,542.140076 551.711914,543.389526 
	C551.357788,543.173584 551.003662,542.957703 550.649536,542.741760 
	C549.060852,544.465454 547.131714,545.987305 545.962463,547.959656 
	C544.166504,550.989136 541.821228,552.038635 538.966064,550.223206 
	C535.398987,547.955139 533.650757,549.462097 531.706421,552.391663 
	C530.712219,553.889709 528.949524,555.068665 527.285767,555.886475 
	C524.803406,557.106628 522.101501,557.880127 519.206787,558.949463 
	C517.548157,554.997620 514.473511,556.221985 511.507874,558.321045 
	C508.112549,560.724182 504.110138,562.456238 503.150208,567.396484 
	C502.575928,570.352112 500.299866,570.403870 498.377319,568.251404 
	C494.475128,563.882629 494.098297,563.865906 491.073181,568.616943 
	C485.819275,568.227234 481.050293,569.166504 476.865173,572.532654 
	C476.103607,573.145142 474.842255,573.384033 473.815155,573.375305 
	C469.627319,573.339783 465.420593,572.847046 461.263092,573.134521 
	C459.366699,573.265625 457.568542,574.817566 455.559479,575.807007 
	C454.704346,575.411072 453.292938,574.441101 451.742065,574.093689 
	C444.483673,572.467896 437.220459,577.517639 429.861389,574.158875 
	C429.132019,573.825928 427.491852,574.604553 426.747498,575.343750 
	C423.724426,578.345825 421.782288,576.787781 420.015472,574.014771 
	C418.538666,571.696899 417.302948,570.945312 414.002167,571.983276 
	C410.546692,573.069885 405.883820,575.457642 402.503418,570.444519 
	C401.514221,568.977417 399.006592,568.534302 397.180389,567.614563 
	C396.092438,569.869202 395.360168,571.386719 394.627899,572.904236 
	C394.032990,573.216736 393.438049,573.529236 392.843140,573.841736 
	C391.829681,571.594727 390.816193,569.347778 389.802734,567.100769 
	C385.282715,576.883301 382.108246,567.203186 379.487701,567.894043 
	C378.724304,569.956726 378.193481,571.390991 377.194733,574.089539 
	C376.119324,568.796326 375.356537,565.041931 374.424866,560.456238 
	C372.193512,562.899170 370.941193,565.388367 369.069641,566.008545 
	C367.151001,566.644226 364.626434,565.451111 361.843079,564.967346 
	C363.258179,563.016235 364.072449,561.893494 365.077240,560.508118 
	C362.374939,558.890869 360.634430,553.234131 357.392761,560.103149 
	C356.511017,561.971558 353.265320,562.724304 351.104553,563.989075 
	C350.682220,563.801331 350.259857,563.613647 349.837524,563.425903 
	C350.591858,560.371887 351.346222,557.317871 352.252960,553.646790 
	C350.093811,554.868652 348.347839,555.856750 345.670013,557.372131 
	C346.526733,549.068970 339.979553,550.276855 335.747009,548.437683 
	C332.132965,551.914795 331.778473,551.887512 325.368011,547.508301 
	C327.907043,547.297180 330.243042,547.102844 333.918549,546.797180 
	C326.614960,542.156799 320.725494,538.349243 314.763458,534.658997 
	C312.381470,533.184692 309.363342,532.439331 307.477112,530.529968 
	C304.307983,527.322083 301.239777,526.042969 297.976746,528.368103 
	C293.949463,523.405029 290.243988,518.838501 286.279022,513.952148 
	C286.815704,513.222168 287.701447,512.017395 289.072296,510.152802 
	C287.650177,510.468445 287.041473,510.552094 286.466675,510.739594 
	C283.331085,511.762146 280.222198,512.964966 281.796234,507.303894 
	C281.973572,506.666077 280.114868,505.311798 279.028717,504.527405 
	C278.338440,504.028870 276.860962,504.237061 276.539093,503.671539 
	C273.632782,498.565033 268.501648,498.640472 263.699280,497.908142 
z"/>
<path fill="#F8F8F8" opacity="1.000000" stroke="none" 
	d="
M263.427612,498.035370 
	C268.501648,498.640472 273.632782,498.565033 276.539093,503.671539 
	C276.860962,504.237061 278.338440,504.028870 279.028717,504.527405 
	C280.114868,505.311798 281.973572,506.666077 281.796234,507.303894 
	C280.222198,512.964966 283.331085,511.762146 286.466675,510.739594 
	C287.041473,510.552094 287.650177,510.468445 289.072296,510.152802 
	C287.701447,512.017395 286.815704,513.222168 286.279022,513.952148 
	C290.243988,518.838501 293.949463,523.405029 297.976746,528.368103 
	C301.239777,526.042969 304.307983,527.322083 307.477112,530.529968 
	C309.363342,532.439331 312.381470,533.184692 314.763458,534.658997 
	C320.725494,538.349243 326.614960,542.156799 333.918549,546.797180 
	C330.243042,547.102844 327.907043,547.297180 325.368011,547.508301 
	C331.778473,551.887512 332.132965,551.914795 335.747009,548.437683 
	C339.979553,550.276855 346.526733,549.068970 345.670013,557.372131 
	C348.347839,555.856750 350.093811,554.868652 352.252960,553.646790 
	C351.346222,557.317871 350.591858,560.371887 349.837524,563.425903 
	C350.259857,563.613647 350.682220,563.801331 351.104553,563.989075 
	C353.265320,562.724304 356.511017,561.971558 357.392761,560.103149 
	C360.634430,553.234131 362.374939,558.890869 365.077240,560.508118 
	C364.072449,561.893494 363.258179,563.016235 361.843079,564.967346 
	C364.626434,565.451111 367.151001,566.644226 369.069641,566.008545 
	C370.941193,565.388367 372.193512,562.899170 374.424866,560.456238 
	C375.356537,565.041931 376.119324,568.796326 377.194733,574.089539 
	C378.193481,571.390991 378.724304,569.956726 379.487701,567.894043 
	C382.108246,567.203186 385.282715,576.883301 389.802734,567.100769 
	C390.816193,569.347778 391.829681,571.594727 392.843140,573.841736 
	C393.438049,573.529236 394.032990,573.216736 394.627899,572.904236 
	C395.360168,571.386719 396.092438,569.869202 397.180389,567.614563 
	C399.006592,568.534302 401.514221,568.977417 402.503418,570.444519 
	C405.883820,575.457642 410.546692,573.069885 414.002167,571.983276 
	C417.302948,570.945312 418.538666,571.696899 420.015472,574.014771 
	C421.782288,576.787781 423.724426,578.345825 426.747498,575.343750 
	C427.491852,574.604553 429.132019,573.825928 429.861389,574.158875 
	C437.220459,577.517639 444.483673,572.467896 451.742065,574.093689 
	C453.292938,574.441101 454.704346,575.411072 455.559479,575.807007 
	C457.568542,574.817566 459.366699,573.265625 461.263092,573.134521 
	C465.420593,572.847046 469.627319,573.339783 473.815155,573.375305 
	C474.842255,573.384033 476.103607,573.145142 476.865173,572.532654 
	C481.050293,569.166504 485.819275,568.227234 491.073181,568.616943 
	C494.098297,563.865906 494.475128,563.882629 498.377319,568.251404 
	C500.299866,570.403870 502.575928,570.352112 503.150208,567.396484 
	C504.110138,562.456238 508.112549,560.724182 511.507874,558.321045 
	C514.473511,556.221985 517.548157,554.997620 519.206787,558.949463 
	C522.101501,557.880127 524.803406,557.106628 527.285767,555.886475 
	C528.949524,555.068665 530.712219,553.889709 531.706421,552.391663 
	C533.650757,549.462097 535.398987,547.955139 538.966064,550.223206 
	C541.821228,552.038635 544.166504,550.989136 545.962463,547.959656 
	C547.131714,545.987305 549.060852,544.465454 550.649536,542.741760 
	C551.003662,542.957703 551.357788,543.173584 551.711914,543.389526 
	C551.639282,542.140076 551.566650,540.890625 551.542664,540.478210 
	C553.695557,538.683289 555.394775,537.286926 557.067444,535.859497 
	C557.561096,535.438110 558.027344,534.483276 558.426086,534.525696 
	C567.430359,535.484070 570.461060,528.995728 573.146484,523.153687 
	C575.640564,522.361877 577.649658,521.865356 579.541870,521.085510 
	C581.638794,520.221375 583.628967,519.098083 585.945557,517.948730 
	C585.701599,516.327942 585.438904,514.582825 585.116211,512.439148 
	C589.677551,509.760223 594.220032,507.092346 598.789490,504.408661 
	C599.521179,501.360107 600.450806,497.487183 601.446655,493.338196 
	C604.596863,493.101318 607.630371,492.873260 611.350098,492.593567 
	C609.587402,489.892639 608.250977,487.844940 606.492065,485.149872 
	C610.425171,483.898895 613.602234,482.888367 617.283142,481.717590 
	C612.449463,476.333618 617.807983,474.854645 620.247070,472.051514 
	C621.694458,473.007416 623.130005,473.955536 624.941162,474.905701 
	C630.335510,484.405823 634.819702,494.237915 640.497559,503.324066 
	C649.141052,517.156189 658.463135,530.574768 667.783264,543.969788 
	C673.910767,552.776245 681.880371,560.435730 684.286133,571.446777 
	C685.268066,575.940796 687.418457,580.697876 686.697144,584.937073 
	C685.224792,593.590820 682.981995,602.290161 677.237549,609.467590 
	C671.018188,617.238220 663.386658,622.825012 653.513855,624.982056 
	C636.777954,628.638611 620.114807,632.697693 603.272644,635.775024 
	C591.679688,637.893311 579.860291,638.922058 568.098755,639.933228 
	C549.712646,641.514038 531.295044,642.747192 512.880127,643.965820 
	C504.627167,644.511902 496.351135,644.812744 488.080719,644.970215 
	C466.160370,645.387695 444.235352,646.013794 422.316101,645.886597 
	C405.778351,645.790588 389.228790,644.943848 372.717346,643.907654 
	C356.948608,642.918030 341.222382,641.251831 325.317596,639.267090 
	C326.040558,637.622253 326.923340,636.593262 327.633392,635.765625 
	C323.243073,633.407166 319.355804,631.058716 315.249939,629.190735 
	C311.589752,627.525574 307.777008,625.704956 303.869965,625.197632 
	C299.011383,624.566772 295.757385,621.991211 292.246613,619.082764 
	C287.976227,615.544983 283.223999,612.588257 278.668030,609.397583 
	C278.410126,609.216919 278.045807,609.180237 277.725525,609.097900 
	C268.960999,606.845581 262.606903,601.034546 256.861938,594.540222 
	C254.665741,592.057678 252.893387,590.134033 250.562027,592.179749 
	C248.600662,589.638550 247.224213,587.023560 245.110947,585.325500 
	C242.402664,583.149353 238.583496,582.226440 236.190323,579.821045 
	C233.363174,576.979492 229.280365,575.452637 228.053970,570.425232 
	C227.528244,568.270020 224.477737,563.551880 219.731781,563.916748 
	C223.744080,558.010681 227.766357,552.111328 231.766602,546.197083 
	C239.880890,534.200317 247.983215,522.195374 256.772614,510.048004 
	C260.687073,507.335602 263.677185,504.641327 262.739563,499.876617 
	C262.878357,499.305267 263.017120,498.733948 263.427612,498.035370 
M314.341888,537.320862 
	C313.635315,538.169617 312.928711,539.018311 312.222107,539.867004 
	C313.548065,540.607483 314.873993,541.348022 316.199951,542.088501 
	C316.534271,541.683228 316.868591,541.277954 317.202942,540.872620 
	C316.465393,539.792236 315.727844,538.711792 314.341888,537.320862 
M507.321259,564.645691 
	C508.144073,565.736267 508.966888,566.826843 509.789734,567.917419 
	C510.657898,565.317810 511.913055,562.375549 507.321259,564.645691 
z"/>
<path fill="#FFFFFF" opacity="1.000000" stroke="none" 
	d="
M410.094818,665.000122 
	C445.326172,665.000000 480.069122,665.000000 514.619812,665.000000 
	C508.630005,685.099854 484.244995,704.376587 459.637787,706.905579 
	C421.581238,710.816772 394.614197,687.959717 385.727478,663.695679 
	C393.932068,664.143921 401.769257,664.572021 410.094818,665.000122 
z"/>
<path fill="#F6F6F6" opacity="1.000000" stroke="none" 
	d="
M219.424438,564.097229 
	C224.477737,563.551880 227.528244,568.270020 228.053970,570.425232 
	C229.280365,575.452637 233.363174,576.979492 236.190323,579.821045 
	C238.583496,582.226440 242.402664,583.149353 245.110947,585.325500 
	C247.224213,587.023560 248.600662,589.638550 250.562027,592.179749 
	C252.893387,590.134033 254.665741,592.057678 256.861938,594.540222 
	C262.606903,601.034546 268.960999,606.845581 277.725525,609.097900 
	C278.045807,609.180237 278.410126,609.216919 278.668030,609.397583 
	C283.223999,612.588257 287.976227,615.544983 292.246613,619.082764 
	C295.757385,621.991211 299.011383,624.566772 303.869965,625.197632 
	C307.777008,625.704956 311.589752,627.525574 315.249939,629.190735 
	C319.355804,631.058716 323.243073,633.407166 327.633392,635.765625 
	C326.923340,636.593262 326.040558,637.622253 325.007629,638.979004 
	C296.810028,635.883057 268.763031,632.174988 241.922394,622.961487 
	C226.977280,617.831360 218.838272,606.142517 215.840927,590.800720 
	C215.207428,587.558167 214.223190,584.315796 214.146194,581.055725 
	C214.089600,578.659058 215.249374,576.233704 216.177795,573.260254 
	C216.629837,572.378662 216.771164,572.057983 216.912491,571.737305 
	C217.647369,569.250793 218.382248,566.764221 219.424438,564.097229 
z"/>
<path fill="#FDFDFD" opacity="1.000000" stroke="none" 
	d="
M262.428101,500.028259 
	C263.677185,504.641327 260.687073,507.335602 257.084076,509.902222 
	C258.514496,506.661499 260.315582,503.420715 262.428101,500.028259 
z"/>
<path fill="#F8F8F8" opacity="1.000000" stroke="none" 
	d="
M216.647247,571.855225 
	C216.771164,572.057983 216.629837,572.378662 216.264877,572.845947 
	C216.154831,572.652771 216.268402,572.312927 216.647247,571.855225 
z"/>
<path fill="#FDFDFD" opacity="1.000000" stroke="none" 
	d="
M314.666077,537.476135 
	C315.727844,538.711792 316.465393,539.792236 317.202942,540.872620 
	C316.868591,541.277954 316.534271,541.683228 316.199951,542.088501 
	C314.873993,541.348022 313.548065,540.607483 312.222107,539.867004 
	C312.928711,539.018311 313.635315,538.169617 314.666077,537.476135 
z"/>
<path fill="#FDFDFD" opacity="1.000000" stroke="none" 
	d="
M507.478333,564.346619 
	C511.913055,562.375549 510.657898,565.317810 509.789734,567.917419 
	C508.966888,566.826843 508.144073,565.736267 507.478333,564.346619 
z"/>
</svg>